<svg width="360" height="240" viewBox="0 0 360 240" fill="none" xmlns="http://www.w3.org/2000/svg">
<g clip-path="url(#clip0_2451_4654)">
<path d="M125.3 142.5V99.3004H142.43C145.35 99.3004 147.74 99.8904 149.6 101.07C151.48 102.23 152.87 103.72 153.77 105.54C154.69 107.36 155.15 109.24 155.15 111.18C155.15 113.56 154.58 115.58 153.44 117.24C152.32 118.9 150.79 120.02 148.85 120.6V119.1C151.57 119.72 153.63 121.01 155.03 122.97C156.45 124.93 157.16 127.16 157.16 129.66C157.16 132.22 156.67 134.46 155.69 136.38C154.71 138.3 153.25 139.8 151.31 140.88C149.39 141.96 147.01 142.5 144.17 142.5H125.3ZM132.62 135.69H143.27C144.53 135.69 145.66 135.44 146.66 134.94C147.66 134.42 148.44 133.7 149 132.78C149.58 131.84 149.87 130.73 149.87 129.45C149.87 128.29 149.62 127.25 149.12 126.33C148.62 125.41 147.89 124.68 146.93 124.14C145.97 123.58 144.82 123.3 143.48 123.3H132.62V135.69ZM132.62 116.55H142.34C143.38 116.55 144.31 116.35 145.13 115.95C145.95 115.55 146.6 114.96 147.08 114.18C147.56 113.4 147.8 112.44 147.8 111.3C147.8 109.8 147.32 108.55 146.36 107.55C145.4 106.55 144.06 106.05 142.34 106.05H132.62V116.55Z" fill="#1D2026"/>
<path d="M163.151 142.5V110.1H169.541V117.99L168.761 116.97C169.161 115.89 169.691 114.91 170.351 114.03C171.031 113.13 171.841 112.39 172.781 111.81C173.581 111.27 174.461 110.85 175.421 110.55C176.401 110.23 177.401 110.04 178.421 109.98C179.441 109.9 180.431 109.94 181.391 110.1V116.85C180.431 116.57 179.321 116.48 178.061 116.58C176.821 116.68 175.701 117.03 174.701 117.63C173.701 118.17 172.881 118.86 172.241 119.7C171.621 120.54 171.161 121.5 170.861 122.58C170.561 123.64 170.411 124.79 170.411 126.03V142.5H163.151Z" fill="#1D2026"/>
<path d="M187.717 105.18V98.5504H194.947V105.18H187.717ZM187.717 142.5V110.1H194.947V142.5H187.717Z" fill="#1D2026"/>
<path d="M216.443 143.4C212.443 143.4 209.193 142.5 206.693 140.7C204.193 138.9 202.673 136.37 202.133 133.11L209.513 131.97C209.893 133.57 210.733 134.83 212.033 135.75C213.333 136.67 214.973 137.13 216.953 137.13C218.693 137.13 220.033 136.79 220.973 136.11C221.933 135.41 222.413 134.46 222.413 133.26C222.413 132.52 222.233 131.93 221.873 131.49C221.533 131.03 220.773 130.59 219.593 130.17C218.413 129.75 216.603 129.22 214.163 128.58C211.443 127.86 209.283 127.09 207.683 126.27C206.083 125.43 204.933 124.44 204.233 123.3C203.533 122.16 203.183 120.78 203.183 119.16C203.183 117.14 203.713 115.38 204.773 113.88C205.833 112.38 207.313 111.23 209.213 110.43C211.113 109.61 213.353 109.2 215.933 109.2C218.453 109.2 220.683 109.59 222.623 110.37C224.583 111.15 226.163 112.26 227.363 113.7C228.563 115.14 229.303 116.83 229.583 118.77L222.203 120.09C222.023 118.71 221.393 117.62 220.313 116.82C219.253 116.02 217.833 115.57 216.053 115.47C214.353 115.37 212.983 115.63 211.943 116.25C210.903 116.85 210.383 117.7 210.383 118.8C210.383 119.42 210.593 119.95 211.013 120.39C211.433 120.83 212.273 121.27 213.533 121.71C214.813 122.15 216.713 122.69 219.233 123.33C221.813 123.99 223.873 124.75 225.413 125.61C226.973 126.45 228.093 127.46 228.773 128.64C229.473 129.82 229.823 131.25 229.823 132.93C229.823 136.19 228.633 138.75 226.253 140.61C223.893 142.47 220.623 143.4 216.443 143.4Z" fill="#1D2026"/>
<path d="M255.384 142.5C253.244 142.9 251.144 143.07 249.084 143.01C247.044 142.97 245.214 142.6 243.594 141.9C241.974 141.18 240.744 140.05 239.904 138.51C239.164 137.11 238.774 135.68 238.734 134.22C238.694 132.76 238.674 131.11 238.674 129.27V101.1H245.874V128.85C245.874 130.15 245.884 131.29 245.904 132.27C245.944 133.25 246.154 134.05 246.534 134.67C247.254 135.87 248.404 136.54 249.984 136.68C251.564 136.82 253.364 136.74 255.384 136.44V142.5ZM232.794 115.77V110.1H255.384V115.77H232.794Z" fill="#1D2026"/>
<path d="M275.02 143.4C271.78 143.4 268.95 142.67 266.53 141.21C264.11 139.75 262.23 137.74 260.89 135.18C259.57 132.6 258.91 129.64 258.91 126.3C258.91 122.9 259.59 119.92 260.95 117.36C262.31 114.8 264.2 112.8 266.62 111.36C269.04 109.92 271.84 109.2 275.02 109.2C278.28 109.2 281.12 109.93 283.54 111.39C285.96 112.85 287.84 114.87 289.18 117.45C290.52 120.01 291.19 122.96 291.19 126.3C291.19 129.66 290.51 132.63 289.15 135.21C287.81 137.77 285.93 139.78 283.51 141.24C281.09 142.68 278.26 143.4 275.02 143.4ZM275.02 136.62C277.9 136.62 280.04 135.66 281.44 133.74C282.84 131.82 283.54 129.34 283.54 126.3C283.54 123.16 282.83 120.66 281.41 118.8C279.99 116.92 277.86 115.98 275.02 115.98C273.08 115.98 271.48 116.42 270.22 117.3C268.98 118.16 268.06 119.37 267.46 120.93C266.86 122.47 266.56 124.26 266.56 126.3C266.56 129.44 267.27 131.95 268.69 133.83C270.13 135.69 272.24 136.62 275.02 136.62Z" fill="#1D2026"/>
<path d="M298.4 142.5V98.4004H305.63V142.5H298.4Z" fill="#1D2026"/>
<path fill-rule="evenodd" clip-rule="evenodd" d="M99.2855 90H55V118.571H99.2855C107.175 118.571 113.571 112.175 113.571 104.286C113.571 96.396 107.175 90.0001 99.2855 90Z" fill="#1D2026"/>
<path fill-rule="evenodd" clip-rule="evenodd" d="M99.2857 121.428H55V150H99.2433C99.2573 150 99.2714 150 99.2855 150C107.175 150 113.571 143.604 113.571 135.714C113.571 127.824 107.175 121.428 99.2857 121.428Z" fill="#1D2026"/>
</g>
<defs>
<clipPath id="clip0_2451_4654">
<rect width="250.667" height="60" fill="white" transform="translate(55 90)"/>
</clipPath>
</defs>
</svg>
