<svg width="140" height="128" viewBox="0 0 140 128" fill="none" xmlns="http://www.w3.org/2000/svg">
<g id="Couples">
<path id="Vector" d="M59.9699 72.43C51.4399 63.995 47.4799 49.93 51.4399 39.58C59.8249 17.665 78.3899 20.375 85.7099 34.43C91.2999 45.165 89.9749 57.325 82.6199 66.935C75.2649 76.545 68.4999 80.86 59.9699 72.425V72.43Z" fill="#36A3D9"/>
<path id="Vector_2" d="M108.18 110.04C106.645 102.62 110.87 94.6 117.58 91.26C121.83 89.145 126.88 89.655 131.11 87.465C133.005 86.485 134.78 84.895 135.71 82.945C136.735 80.785 136.58 78.64 135.575 76.51C135.115 75.535 134.42 74.555 134.275 73.46C134.145 72.45 134.825 71.85 135.22 71C136.36 68.515 134.45 66.145 132.03 65.535L132.58 67.625C133.51 66.675 134.55 65.77 135.215 64.6C135.495 64.105 135.405 63.495 135.02 63.085C134.48 62.51 133.85 61.905 133.53 61.165C133.25 60.525 133.445 59.91 133.75 59.36C134.53 57.94 135.695 56.755 136.39 55.285C137.085 53.815 137.12 52.055 136.145 50.61C135.225 49.25 133.845 48.295 132.5 47.395C131.045 46.42 129.555 45.495 128.12 44.49C126.685 43.485 125.485 42.21 124.8 40.51C124.115 38.81 123.53 37.155 122.755 35.525C122.025 33.995 121.2 32.51 120.285 31.08C116.625 25.335 111.635 20.45 105.825 16.895C100.015 13.34 93.315 11.145 86.475 10.8C79.635 10.455 72.805 11.96 66.655 14.88C60.49 17.81 55.06 22.265 51.1 27.835C47.14 33.405 44.885 40.16 44.395 47.005C43.905 53.85 45.225 60.88 48.255 67.07C49.775 70.175 51.765 73.03 54.11 75.57C56.605 78.27 59.43 80.635 62.05 83.205C64.67 85.775 67.04 88.495 68.515 91.83C70.005 95.19 70.5 99.045 69.995 102.68C69.745 104.505 69.235 106.325 68.485 108.005H70.645C68.745 104.77 68.015 101.07 68.53 97.355C69.045 93.64 70.59 90.22 72.57 87.115C74.55 84.01 77.255 81.225 80.1 78.69C82.945 76.155 85.945 73.66 88.335 70.63C93.04 64.645 95.545 57.11 95.6 49.515C95.655 42.395 93.475 35.335 89.65 29.345C85.82 23.345 80.375 18.36 73.955 15.25C67.05 11.905 59.205 10.58 51.58 11.37C44.86 12.07 38.215 14.435 32.335 17.75C26.455 21.065 21.675 25.765 18.945 31.89C17.53 35.065 16.515 38.4 14.65 41.36C13.875 42.585 12.965 43.7 11.9 44.69C10.645 45.86 9.20001 46.82 7.86001 47.885C6.52001 48.95 4.95001 50.12 3.90501 51.57C2.86001 53.02 2.85501 54.985 3.69001 56.61C4.48001 58.145 6.26001 59.035 6.87501 60.645C7.14501 61.355 6.98001 61.785 6.42001 62.24C5.79001 62.745 5.11001 63.16 4.68001 63.87C3.56501 65.71 4.86001 67.59 6.23501 68.825L6.49001 66.86C5.66001 67.35 4.82001 67.92 4.30001 68.755C3.71001 69.71 3.73001 70.855 4.11501 71.885C4.42501 72.72 4.88001 73.485 4.73501 74.405C4.59001 75.325 4.14001 76.2 3.80001 77.06C3.04501 78.975 2.94001 80.885 3.90001 82.75C4.86001 84.615 6.53001 85.89 8.37001 86.685C10.4 87.565 12.57 87.95 14.69 88.545C16.565 89.07 18.405 89.735 20.15 90.595C23.655 92.325 26.885 94.795 28.98 98.14C31.255 101.765 32.235 106.225 30.995 110.39C30.535 111.935 32.945 112.595 33.405 111.055C34.535 107.265 34.085 103.21 32.55 99.6C31.015 95.99 28.295 92.89 25.045 90.59C21.795 88.29 17.95 86.76 14.07 85.8C12.09 85.31 10.005 84.91 8.25001 83.82C6.88501 82.97 5.63001 81.495 5.66001 79.805C5.68001 78.82 6.15001 77.87 6.51501 76.97C6.91501 75.995 7.27501 74.975 7.26001 73.905C7.24501 72.725 6.61501 71.84 6.36501 70.73C6.16501 69.86 7.11001 69.395 7.75001 69.015C8.39001 68.635 8.61001 67.595 8.00501 67.05C7.60501 66.695 6.71001 66.005 6.74001 65.385C6.76501 64.895 7.59001 64.475 7.93001 64.21C9.58501 62.925 9.88001 61.055 8.96001 59.205C8.56001 58.4 7.93501 57.735 7.31001 57.105C6.76501 56.555 6.14001 56 5.81501 55.28C5.14501 53.795 5.99001 52.8 7.07001 51.81C9.53501 49.545 12.535 47.84 14.775 45.335C16.895 42.96 18.275 40.12 19.49 37.2C20.165 35.57 20.735 33.895 21.505 32.31C22.275 30.725 23.1 29.36 24.095 28.015C25.895 25.57 28.185 23.46 30.68 21.735C33.175 20.01 35.795 18.665 38.53 17.5C41.535 16.22 44.64 15.125 47.845 14.46C55.03 12.97 62.625 13.525 69.515 16.055C75.95 18.415 81.68 22.68 85.805 28.16C89.93 33.64 92.495 39.935 93.01 46.63C93.565 53.835 91.78 61.19 87.755 67.215C83.555 73.5 76.745 77.34 72.19 83.325C67.775 89.115 64.67 96.625 66.355 103.975C66.78 105.835 67.535 107.625 68.5 109.265C68.935 110.01 70.26 110.15 70.66 109.265C73.835 102.195 73.225 93.79 68.89 87.33C64.835 81.295 58.52 77.35 54.065 71.665C50.025 66.515 47.63 60.075 47 53.58C46.36 47.005 47.375 40.21 50.24 34.23C53.085 28.29 57.655 23.29 63.16 19.705C68.665 16.12 74.99 13.9 81.505 13.375C88.02 12.85 94.67 14.085 100.62 16.905C106.605 19.74 111.885 23.99 115.955 29.215C117.97 31.805 119.675 34.655 121.015 37.65C121.76 39.31 122.24 41.1 123.095 42.71C123.95 44.32 125.365 45.585 126.87 46.64C128.28 47.625 129.745 48.54 131.17 49.495C132.28 50.24 133.7 51.075 134.275 52.345C134.805 53.51 133.885 54.74 133.17 55.76C132.215 57.125 131.06 58.485 130.91 60.21C130.745 62.08 132.065 63.575 133.26 64.84L133.065 63.325C132.57 64.19 131.645 64.995 130.82 65.84C130.175 66.5 130.445 67.695 131.37 67.93C132.065 68.105 132.825 68.58 133.045 69.16C133.135 69.405 133.15 69.51 133 69.865C132.83 70.275 132.515 70.63 132.3 71.02C131.185 73.075 132.095 75.15 133.065 77.045C133.495 77.885 133.935 78.76 133.96 79.725C133.98 80.625 133.705 81.47 133.245 82.24C132.25 83.915 130.535 85.125 128.725 85.77C126.405 86.6 123.935 86.87 121.535 87.36C119.435 87.785 117.405 88.44 115.535 89.5C112.155 91.415 109.38 94.42 107.625 97.875C105.615 101.825 104.875 106.325 105.78 110.685C106.105 112.26 108.515 111.595 108.19 110.02L108.18 110.04Z" fill="#0D3A57"/>
<path id="Vector_3" d="M103.67 52.145C109.655 53.95 116.275 51.055 118.885 45.345C119.165 44.73 119.06 44 118.435 43.635C117.895 43.32 117.005 43.465 116.725 44.085C114.56 48.81 109.335 51.245 104.33 49.735C102.785 49.27 102.125 51.68 103.665 52.145H103.67Z" fill="#0D3A57"/>
<path id="Vector_4" d="M32.0049 52.08C30.5499 52.08 29.0949 51.78 27.7399 51.175C25.1099 50.005 22.8799 47.695 21.6249 44.845C21.4849 44.525 21.6249 44.15 21.9499 44.005C22.2699 43.865 22.6449 44.005 22.7899 44.33C23.9199 46.895 25.9099 48.965 28.2549 50.01C30.5799 51.045 33.2549 51.07 35.5949 50.075C35.9199 49.935 36.2899 50.09 36.4299 50.41C36.5649 50.735 36.4149 51.105 36.0949 51.245C34.7899 51.8 33.3949 52.075 31.9999 52.075L32.0049 52.08Z" fill="#0D3A57"/>
<path id="Vector_5" d="M21.3049 45.51C23.8199 51 30.2399 53.76 35.9699 51.92C37.4949 51.43 36.8449 49.015 35.3049 49.51C32.9149 50.275 30.2599 50.175 28.0049 49.03C25.9699 47.995 24.4099 46.32 23.4649 44.25C23.1849 43.635 22.2949 43.485 21.7549 43.8C21.1249 44.17 21.0249 44.895 21.3049 45.51Z" fill="#0D3A57"/>
</g>
</svg>
