<svg width="16" height="16" viewBox="0 0 16 16" fill="none" xmlns="http://www.w3.org/2000/svg">
<g id="face-smile-solid 1" clip-path="url(#clip0_2572_5563)">
<path id="Vector" d="M8 15.9996C10.1217 15.9996 12.1566 15.1568 13.6569 13.6565C15.1571 12.1562 16 10.1214 16 7.99963C16 5.8779 15.1571 3.84307 13.6569 2.34278C12.1566 0.842489 10.1217 -0.000366211 8 -0.000366211C5.87827 -0.000366211 3.84344 0.842489 2.34315 2.34278C0.842855 3.84307 0 5.8779 0 7.99963C0 10.1214 0.842855 12.1562 2.34315 13.6565C3.84344 15.1568 5.87827 15.9996 8 15.9996ZM5.12813 10.1715C5.6875 10.8184 6.64375 11.4996 8 11.4996C9.35625 11.4996 10.3125 10.8184 10.8719 10.1715C11.0531 9.96213 11.3687 9.94026 11.5781 10.1215C11.7875 10.3028 11.8094 10.6184 11.6281 10.8278C10.9313 11.6278 9.72188 12.4996 8 12.4996C6.27812 12.4996 5.06875 11.6278 4.37187 10.8278C4.19062 10.6184 4.2125 10.3028 4.42188 10.1215C4.63125 9.94026 4.94688 9.96213 5.12813 10.1715ZM4.5125 6.49963C4.5125 6.23442 4.61786 5.98006 4.80539 5.79253C4.99293 5.60499 5.24728 5.49963 5.5125 5.49963C5.77772 5.49963 6.03207 5.60499 6.21961 5.79253C6.40714 5.98006 6.5125 6.23442 6.5125 6.49963C6.5125 6.76485 6.40714 7.0192 6.21961 7.20674C6.03207 7.39428 5.77772 7.49963 5.5125 7.49963C5.24728 7.49963 4.99293 7.39428 4.80539 7.20674C4.61786 7.0192 4.5125 6.76485 4.5125 6.49963ZM10.5125 5.49963C10.7777 5.49963 11.0321 5.60499 11.2196 5.79253C11.4071 5.98006 11.5125 6.23442 11.5125 6.49963C11.5125 6.76485 11.4071 7.0192 11.2196 7.20674C11.0321 7.39428 10.7777 7.49963 10.5125 7.49963C10.2473 7.49963 9.99293 7.39428 9.80539 7.20674C9.61786 7.0192 9.5125 6.76485 9.5125 6.49963C9.5125 6.23442 9.61786 5.98006 9.80539 5.79253C9.99293 5.60499 10.2473 5.49963 10.5125 5.49963Z" fill="#D9EFFE"/>
</g>
<defs>
<clipPath id="clip0_2572_5563">
<rect width="16" height="16" fill="white" transform="translate(0 -0.000366211)"/>
</clipPath>
</defs>
</svg>
