<svg width="20" height="21" viewBox="0 0 20 21" fill="none" xmlns="http://www.w3.org/2000/svg">
<g id="facebook 1" clip-path="url(#clip0_2506_1071)">
<path id="Vector" d="M20 10.333C20 4.80957 15.5234 0.333008 10 0.333008C4.47656 0.333008 0 4.80957 0 10.333C0 15.0205 3.23047 18.958 7.58594 20.04V13.3877H5.52344V10.333H7.58594V9.0166C7.58594 5.61426 9.125 4.03613 12.4688 4.03613C13.1016 4.03613 14.1953 4.16113 14.6445 4.28613V7.05176C14.4102 7.02832 14 7.0127 13.4883 7.0127C11.8477 7.0127 11.2148 7.63379 11.2148 9.24707V10.333H14.4805L13.918 13.3877H11.2109V20.2588C16.1641 19.6611 20 15.4463 20 10.333Z" fill="#DAF5F1"/>
</g>
<defs>
<clipPath id="clip0_2506_1071">
<rect width="20" height="20" fill="white" transform="translate(0 0.333008)"/>
</clipPath>
</defs>
</svg>
