<svg width="360" height="240" viewBox="0 0 360 240" fill="none" xmlns="http://www.w3.org/2000/svg">
<path d="M129.783 140.243C125.743 140.243 122.172 139.449 119.069 137.862C115.966 136.238 113.568 133.947 111.872 130.989C110.177 128.031 109.329 124.55 109.329 120.546C109.329 116.542 110.177 113.06 111.872 110.102C113.568 107.108 115.966 104.817 119.069 103.23C122.172 101.607 125.743 100.795 129.783 100.795C132.525 100.795 134.942 101.084 137.034 101.661C139.163 102.202 141.11 103.068 142.878 104.258V112.104C141.291 110.806 139.469 109.868 137.413 109.291C135.393 108.677 133.084 108.371 130.487 108.371C128.07 108.371 125.887 108.876 123.939 109.886C122.027 110.86 120.512 112.267 119.394 114.107C118.276 115.946 117.716 118.093 117.716 120.546C117.716 123.035 118.221 125.218 119.231 127.093C120.278 128.933 121.738 130.358 123.614 131.368C125.49 132.378 127.655 132.883 130.108 132.883C132.344 132.883 134.292 132.486 135.952 131.693V124.388H129.837V118.327H143.906V136.563C140.335 139.016 135.627 140.243 129.783 140.243Z" fill="#1D2026"/>
<path d="M145.806 113.457H153.706V117.191C154.752 115.928 156.213 114.972 158.089 114.323C159.965 113.638 162.093 113.295 164.474 113.295V119.518C161.985 119.518 159.784 119.897 157.872 120.654C155.997 121.412 154.698 122.566 153.976 124.117V139.431H145.806V113.457Z" fill="#1D2026"/>
<path d="M180.176 140.243C175.198 140.243 171.283 139.052 168.434 136.671C165.584 134.254 164.159 130.881 164.159 126.552C164.159 122.259 165.422 118.868 167.947 116.379C170.508 113.89 174.151 112.646 178.878 112.646C181.98 112.646 184.613 113.223 186.778 114.377C188.942 115.532 190.584 117.137 191.702 119.193C192.82 121.213 193.379 123.504 193.379 126.065V129.366H171.951C172.529 132.685 175.63 134.345 181.258 134.345C182.917 134.345 184.631 134.2 186.399 133.911C188.167 133.623 189.7 133.226 190.999 132.721V138.457C189.736 138.998 188.112 139.431 186.128 139.756C184.144 140.08 182.16 140.243 180.176 140.243ZM185.641 124.063C185.533 122.332 184.884 120.997 183.693 120.059C182.503 119.085 180.861 118.598 178.769 118.598C176.713 118.598 175.089 119.085 173.899 120.059C172.709 121.033 172.059 122.368 171.951 124.063H185.641Z" fill="#1D2026"/>
<path d="M210.128 140.243C205.15 140.243 201.235 139.052 198.386 136.671C195.536 134.254 194.11 130.881 194.11 126.552C194.11 122.259 195.373 118.868 197.899 116.379C200.459 113.89 204.103 112.646 208.829 112.646C211.932 112.646 214.565 113.223 216.73 114.377C218.894 115.532 220.535 117.137 221.653 119.193C222.771 121.213 223.331 123.504 223.331 126.065V129.366H201.903C202.48 132.685 205.582 134.345 211.21 134.345C212.869 134.345 214.583 134.2 216.351 133.911C218.118 133.623 219.651 133.226 220.95 132.721V138.457C219.687 138.998 218.064 139.431 216.08 139.756C214.096 140.08 212.112 140.243 210.128 140.243ZM215.593 124.063C215.484 122.332 214.835 120.997 213.645 120.059C212.454 119.085 210.813 118.598 208.721 118.598C206.665 118.598 205.041 119.085 203.851 120.059C202.66 121.033 202.011 122.368 201.903 124.063H215.593Z" fill="#1D2026"/>
<path d="M225.145 113.457H233.045V116.65C234.236 115.315 235.642 114.323 237.266 113.674C238.925 112.988 240.656 112.646 242.46 112.646C245.996 112.646 248.629 113.602 250.36 115.513C252.128 117.389 253.012 119.933 253.012 123.143V139.431H244.841V124.063C244.841 120.708 243.29 119.031 240.187 119.031C238.817 119.031 237.536 119.373 236.345 120.059C235.155 120.708 234.145 121.682 233.315 122.981V139.431H225.145V113.457Z" fill="#1D2026"/>
<path d="M260.221 109.453C258.959 109.453 257.895 109.038 257.029 108.208C256.163 107.379 255.73 106.333 255.73 105.07C255.73 103.843 256.163 102.815 257.029 101.986C257.895 101.12 258.959 100.687 260.221 100.687C261.484 100.687 262.548 101.12 263.414 101.986C264.28 102.815 264.713 103.843 264.713 105.07C264.713 106.333 264.28 107.379 263.414 108.208C262.548 109.038 261.484 109.453 260.221 109.453ZM256.109 113.457H264.335V139.431H256.109V113.457Z" fill="#1D2026"/>
<path d="M278.269 140.243C276.322 140.243 274.229 140.026 271.993 139.593C269.792 139.196 268.061 138.619 266.798 137.862V131.476C268.241 132.342 269.973 133.046 271.993 133.587C274.013 134.128 275.889 134.398 277.62 134.398C279.099 134.398 280.182 134.272 280.867 134.02C281.552 133.767 281.895 133.298 281.895 132.613C281.895 132.072 281.697 131.639 281.3 131.314C280.903 130.953 280.29 130.647 279.46 130.394C278.667 130.106 277.331 129.691 275.456 129.15C273.256 128.5 271.523 127.851 270.261 127.202C269.035 126.516 268.097 125.668 267.448 124.658C266.834 123.648 266.527 122.35 266.527 120.762C266.527 118.057 267.591 116.037 269.72 114.702C271.884 113.331 274.807 112.646 278.486 112.646C280.29 112.646 282.148 112.844 284.06 113.241C286.007 113.602 287.505 114.089 288.551 114.702V120.925C287.505 120.239 286.134 119.68 284.438 119.247C282.779 118.814 281.156 118.598 279.568 118.598C278.089 118.598 276.935 118.742 276.105 119.031C275.312 119.319 274.914 119.86 274.914 120.654C274.914 121.339 275.293 121.863 276.051 122.223C276.844 122.584 278.306 123.035 280.434 123.576L281.516 123.847C283.789 124.46 285.556 125.145 286.819 125.903C288.082 126.624 288.965 127.508 289.471 128.554C290.012 129.564 290.283 130.845 290.283 132.396C290.283 134.777 289.254 136.689 287.198 138.132C285.142 139.539 282.165 140.243 278.269 140.243Z" fill="#1D2026"/>
<path d="M292.171 99.4424H300.342V116.433C301.568 115.171 302.957 114.233 304.508 113.62C306.059 112.97 307.719 112.646 309.487 112.646C313.022 112.646 315.656 113.602 317.387 115.513C319.154 117.389 320.039 119.933 320.039 123.143V139.431H311.868V124.063C311.868 120.708 310.316 119.031 307.214 119.031C305.843 119.031 304.563 119.373 303.372 120.059C302.181 120.708 301.172 121.682 300.342 122.981V139.431H292.171V99.4424Z" fill="#1D2026"/>
<path fill-rule="evenodd" clip-rule="evenodd" d="M81.4237 107.099C81.4237 113.972 75.852 119.544 68.9785 119.544C62.1049 119.544 56.5328 113.972 56.5328 107.099C56.5328 100.225 62.1049 94.653 68.9785 94.653C75.852 94.653 81.4237 100.225 81.4237 107.099ZM40.0289 118.64C53.5881 117.726 65.4054 127.878 66.5062 141.466C66.6202 142.874 66.6147 144.263 66.4983 145.626C52.939 146.54 41.1218 136.388 40.021 122.8C39.907 121.392 39.9125 120.002 40.0289 118.64ZM75.2713 145.15C88.8592 144.049 99.011 132.232 98.0971 118.673C96.7345 118.557 95.3448 118.551 93.9367 118.665C80.3485 119.766 70.1969 131.583 71.1109 145.142C72.4731 145.259 73.8633 145.264 75.2713 145.15Z" fill="#1D2026"/>
</svg>
