<svg width="128" height="128" viewBox="0 0 128 128" fill="none" xmlns="http://www.w3.org/2000/svg">
<g id="Individual">
<path id="Vector" d="M85.2449 15.58C98.9099 21.085 108.885 34.795 109.91 49.495C110.22 53.935 109.725 58.585 107.465 62.42C105.205 66.255 100.905 69.1 96.4699 68.695C92.9999 68.375 90.0099 66.23 87.2049 64.16C76.2299 56.05 65.2599 47.935 54.2849 39.825C51.4049 37.7 48.4749 35.515 46.4249 32.585C44.7399 30.17 42.9949 26.645 44.5499 23.74C45.8799 21.255 50.0449 18.355 52.4549 17.15C58.8749 13.94 66.1649 12.475 73.3249 12.92C77.3999 13.175 81.4449 14.05 85.2349 15.58H85.2449Z" fill="#21A664"/>
<path id="Vector_2" d="M47.28 120.04C47.07 117.135 46.68 114.235 46.09 111.38C45.585 108.94 44.98 106.5 44.045 104.19C43.11 101.88 42.01 99.895 40.355 98.175C38.7 96.455 36.495 95.235 34.185 94.48C29.83 93.06 25.025 93.22 20.84 91.25C19.175 90.465 17.495 89.395 16.43 87.855C15.28 86.19 15.065 84.37 15.655 82.44C16.385 80.065 17.51 77.795 16.7 75.265C16.355 74.18 15.775 73.16 15.55 72.035C15.505 71.805 15.505 71.525 15.72 71.285C16.08 70.885 16.565 70.65 17.07 70.485C18.07 70.15 18.33 68.765 17.37 68.2C17.015 67.99 16.64 67.775 16.375 67.45C16.37 67.44 16.185 67.14 16.245 67.265C16.245 67.265 16.19 67.055 16.21 67.18C16.23 67.305 16.21 67 16.21 66.965C16.185 67.18 16.29 66.775 16.28 66.8C16.315 66.725 16.45 66.52 16.53 66.405C16.785 66.04 17.085 65.715 17.36 65.37C18.57 63.855 19.27 61.985 18.115 60.205C17.265 58.895 15.765 58.12 14.89 56.915C13.955 55.63 14.565 54.005 15.5 52.9C16.085 52.21 16.805 51.725 17.535 51.205C18.37 50.61 19.195 50.005 20.025 49.405C21.68 48.205 23.47 47.1 24.98 45.715C27.785 43.145 29.19 39.595 30.55 36.14C31.91 32.685 33.52 29.47 35.68 26.47C37.84 23.47 40.385 20.855 43.215 18.555C48.94 13.9 55.91 10.805 63.2 9.67497C71.04 8.45997 79.185 9.59497 86.54 12.495C93.895 15.395 100.715 20.39 105.655 26.725C110.55 33 113.37 40.61 113.58 48.575C113.78 56.315 111.705 64.075 107.69 70.695C103.17 78.14 96.045 83.37 90.555 90.02C87.835 93.315 85.47 96.96 84.17 101.06C82.98 104.83 82.78 109.05 83.945 112.855C84.52 114.735 85.43 116.435 86.635 117.98C87.05 118.515 87.965 118.415 88.405 117.98C88.93 117.455 88.82 116.745 88.405 116.21C86.04 113.18 85.39 109.145 85.785 105.405C86.225 101.285 88.15 97.47 90.515 94.135C95.685 86.84 103.18 81.575 108.34 74.255C113.01 67.625 115.675 59.6 116.05 51.51C116.43 43.29 114.27 35.135 109.78 28.235C105.29 21.335 98.615 15.505 91.1 11.805C83.585 8.10497 75.27 6.29997 66.97 6.78497C59.165 7.24497 51.57 9.78497 45.06 14.12C38.55 18.455 33.37 24.185 30.025 31.065C28.38 34.45 27.42 38.185 25.38 41.375C24.4 42.91 23.135 44.13 21.65 45.175C19.9 46.41 18.185 47.685 16.45 48.93C14.715 50.175 13.25 51.275 12.425 53.215C11.6 55.155 11.815 57.085 13.12 58.675C13.64 59.31 14.275 59.82 14.89 60.36C15.395 60.805 15.96 61.3 16.165 61.81C16.24 62 16.275 62.17 16.22 62.48C16.145 62.88 15.87 63.245 15.63 63.565C15.105 64.26 14.44 64.89 14.065 65.685C13.115 67.69 14.41 69.355 16.12 70.355L16.42 68.07C15.275 68.455 14.125 69.07 13.495 70.14C12.865 71.21 12.995 72.32 13.36 73.415C13.69 74.405 14.195 75.345 14.435 76.36C14.66 77.32 14.435 78.3 14.145 79.22C13.81 80.28 13.36 81.3 13.09 82.375C12.79 83.58 12.74 84.78 12.97 86C13.355 88.055 14.625 89.895 16.205 91.23C17.905 92.665 19.91 93.675 22.015 94.37C24.27 95.11 26.645 95.405 28.97 95.815C31.295 96.225 33.765 96.725 35.895 97.88C38.025 99.035 39.47 100.675 40.6 102.685C41.925 105.04 42.685 107.66 43.3 110.28C44.06 113.49 44.555 116.745 44.79 120.035C44.84 120.71 45.33 121.285 46.04 121.285C46.68 121.285 47.34 120.71 47.29 120.035L47.28 120.04Z" fill="#144133"/>
<path id="Vector_3" d="M31.9 47.14C32.66 49.87 34.83 51.87 37.4 52.92C40.465 54.17 43.94 53.805 47.07 53.015C48.63 52.62 47.97 50.21 46.405 50.605C43.8 51.265 40.985 51.6 38.4 50.645C36.515 49.945 34.855 48.45 34.305 46.48C33.875 44.935 31.46 45.59 31.895 47.145L31.9 47.14Z" fill="#144133"/>
</g>
</svg>
