<svg width="20" height="21" viewBox="0 0 20 21" fill="none" xmlns="http://www.w3.org/2000/svg">
<g id="instagram 1" clip-path="url(#clip0_2506_1074)">
<path id="Vector" d="M10.0022 5.20526C7.16453 5.20526 4.87563 7.49467 4.87563 10.333C4.87563 13.1713 7.16453 15.4608 10.0022 15.4608C12.8399 15.4608 15.1288 13.1713 15.1288 10.333C15.1288 7.49467 12.8399 5.20526 10.0022 5.20526ZM10.0022 13.6667C8.16843 13.6667 6.66927 12.1717 6.66927 10.333C6.66927 8.49434 8.16397 6.9993 10.0022 6.9993C11.8405 6.9993 13.3352 8.49434 13.3352 10.333C13.3352 12.1717 11.836 13.6667 10.0022 13.6667ZM16.5343 4.99551C16.5343 5.66047 15.9989 6.19154 15.3385 6.19154C14.6737 6.19154 14.1428 5.656 14.1428 4.99551C14.1428 4.33502 14.6782 3.79948 15.3385 3.79948C15.9989 3.79948 16.5343 4.33502 16.5343 4.99551ZM19.9297 6.20939C19.8539 4.60725 19.488 3.18808 18.3146 2.01883C17.1456 0.849576 15.7267 0.483627 14.1249 0.403297C12.4741 0.309578 7.52593 0.309578 5.87507 0.403297C4.27775 0.479164 2.8589 0.845113 1.68544 2.01436C0.511991 3.18362 0.150586 4.60278 0.0702733 6.20493C-0.0234244 7.85616 -0.0234244 12.8054 0.0702733 14.4566C0.146124 16.0588 0.511991 17.4779 1.68544 18.6472C2.8589 19.8164 4.27328 20.1824 5.87507 20.2627C7.52593 20.3564 12.4741 20.3564 14.1249 20.2627C15.7267 20.1869 17.1456 19.8209 18.3146 18.6472C19.4835 17.4779 19.8494 16.0588 19.9297 14.4566C20.0234 12.8054 20.0234 7.86062 19.9297 6.20939ZM17.797 16.2284C17.449 17.1031 16.7752 17.7769 15.8963 18.1295C14.58 18.6517 11.4568 18.5312 10.0022 18.5312C8.54769 18.5312 5.41997 18.6472 4.1082 18.1295C3.23369 17.7814 2.55996 17.1075 2.20747 16.2284C1.68544 14.9118 1.80591 11.7879 1.80591 10.333C1.80591 8.87814 1.68991 5.74972 2.20747 4.43766C2.55549 3.56295 3.22922 2.88907 4.1082 2.53651C5.42443 2.01436 8.54769 2.13486 10.0022 2.13486C11.4568 2.13486 14.5845 2.01883 15.8963 2.53651C16.7708 2.88461 17.4445 3.55849 17.797 4.43766C18.319 5.75418 18.1985 8.87814 18.1985 10.333C18.1985 11.7879 18.319 14.9163 17.797 16.2284Z" fill="#DAF5F1"/>
</g>
<defs>
<clipPath id="clip0_2506_1074">
<rect width="20" height="20" fill="white" transform="translate(0 0.333008)"/>
</clipPath>
</defs>
</svg>
