<svg width="360" height="240" viewBox="0 0 360 240" fill="none" xmlns="http://www.w3.org/2000/svg">
<g clip-path="url(#clip0_2451_4635)">
<path d="M84.229 97.3442C81.9706 97.3442 80.0993 96.6749 78.6151 95.3361C77.1955 93.9335 76.4856 92.2122 76.4856 90.1721C76.4856 88.1321 77.1955 86.4426 78.6151 85.1038C80.0993 83.7013 81.9706 83 84.229 83C86.4875 83 88.3266 83.7013 89.7462 85.1038C91.2303 86.4426 91.9724 88.1321 91.9724 90.1721C91.9724 92.2122 91.2303 93.9335 89.7462 95.3361C88.3266 96.6749 86.4875 97.3442 84.229 97.3442ZM67 151.852L75.4209 104.421H87.8104L79.3895 151.852H67Z" fill="#1D2026"/>
<path d="M119.448 151.852C114.415 151.852 110.382 150.641 107.349 148.219C104.317 145.796 102.8 141.493 102.8 135.309V114.653H94.5728V104.421H102.8L104.252 91.7022H115.19V104.421H128.16V114.653H115.19V135.404C115.19 137.699 115.674 139.293 116.641 140.186C117.674 141.015 119.416 141.429 121.868 141.429H127.869V151.852H119.448Z" fill="#1D2026"/>
<path d="M155.349 153C151.219 153 147.831 152.362 145.185 151.087C142.54 149.749 140.572 147.995 139.281 145.828C137.991 143.66 137.345 141.27 137.345 138.656C137.345 134.257 139.088 130.687 142.572 127.945C146.057 125.204 151.283 123.833 158.252 123.833H170.448V122.686C170.448 119.434 169.513 117.044 167.641 115.514C165.77 113.984 163.447 113.219 160.673 113.219C158.156 113.219 155.962 113.824 154.09 115.035C152.219 116.183 151.058 117.904 150.606 120.199H138.507C138.829 116.757 139.991 113.76 141.991 111.21C144.056 108.66 146.702 106.716 149.928 105.377C153.155 103.974 156.768 103.273 160.769 103.273C167.609 103.273 172.997 104.963 176.934 108.342C180.87 111.72 182.838 116.502 182.838 122.686V151.852H172.287L171.126 144.202C169.706 146.752 167.706 148.856 165.125 150.514C162.608 152.171 159.35 153 155.349 153ZM158.156 143.437C161.705 143.437 164.447 142.29 166.383 139.995C168.383 137.699 169.642 134.862 170.158 131.484H159.608C156.316 131.484 153.961 132.089 152.542 133.301C151.122 134.448 150.412 135.883 150.412 137.604C150.412 139.453 151.122 140.887 152.542 141.907C153.961 142.927 155.832 143.437 158.156 143.437Z" fill="#1D2026"/>
<path d="M194.661 151.852V83H207.05V151.852H194.661Z" fill="#1D2026"/>
<path d="M226.389 97.0574C224.13 97.0574 222.259 96.388 220.775 95.0492C219.354 93.7104 218.645 92.021 218.645 89.9809C218.645 87.9408 219.354 86.2832 220.775 85.0082C222.259 83.6694 224.13 83 226.389 83C228.646 83 230.486 83.6694 231.905 85.0082C233.389 86.2832 234.131 87.9408 234.131 89.9809C234.131 92.021 233.389 93.7104 231.905 95.0492C230.486 96.388 228.646 97.0574 226.389 97.0574ZM220.194 151.852V104.421H232.583V151.852H220.194Z" fill="#1D2026"/>
<path d="M269.035 153C264.131 153 259.807 151.948 256.064 149.844C252.322 147.74 249.354 144.808 247.16 141.046C245.03 137.285 243.965 132.982 243.965 128.137C243.965 123.291 245.03 118.988 247.16 115.227C249.354 111.465 252.322 108.533 256.064 106.429C259.807 104.325 264.131 103.273 269.035 103.273C275.165 103.273 280.327 104.867 284.522 108.055C288.716 111.178 291.394 115.514 292.555 121.06H279.489C278.843 118.765 277.553 116.98 275.617 115.705C273.746 114.366 271.519 113.697 268.938 113.697C265.518 113.697 262.614 114.972 260.227 117.522C257.839 120.072 256.645 123.61 256.645 128.137C256.645 132.663 257.839 136.201 260.227 138.751C262.614 141.301 265.518 142.577 268.938 142.577C271.519 142.577 273.746 141.939 275.617 140.664C277.553 139.389 278.843 137.572 279.489 135.213H292.555C291.394 140.568 288.716 144.872 284.522 148.123C280.327 151.374 275.165 153 269.035 153Z" fill="#1D2026"/>
</g>
<defs>
<clipPath id="clip0_2451_4635">
<rect width="225.556" height="70" fill="white" transform="translate(67 83)"/>
</clipPath>
</defs>
</svg>
