<svg width="360" height="240" viewBox="0 0 360 240" fill="none" xmlns="http://www.w3.org/2000/svg">
<path d="M100.504 138.001C100.9 142.733 99.2983 147.603 95.6931 151.24C92.0878 154.878 87.2322 156.522 82.4964 156.167C82.1002 151.435 83.7016 146.565 87.3069 142.928C90.9121 139.291 95.7678 137.646 100.504 138.001Z" fill="#1D2026"/>
<path d="M91.9259 131.424C87.1996 136.479 80.3718 139.509 72.9174 139.168C65.4638 138.828 58.9412 135.189 54.6953 129.726C59.4216 124.671 66.2494 121.642 73.7038 121.982C81.1574 122.322 87.68 125.961 91.9259 131.424Z" fill="#1D2026"/>
<path d="M51.917 115.159C52.9043 103.323 58.8753 91.9787 69.276 84.5058C79.6763 77.0333 92.3328 74.9939 103.864 77.8338C102.877 89.6688 96.9056 101.014 86.5049 108.487C76.1046 115.959 63.4481 117.999 51.917 115.159Z" fill="#1D2026"/>
<path d="M243.636 100.645V107.852H247.96V145.529H255.647V107.852H265.737V100.645H255.647V93.2707C255.647 91.1565 255.839 89.4591 256.224 88.1777C256.608 86.8965 257.121 85.9998 257.761 85.4871C258.466 84.9107 259.299 84.6225 260.26 84.6225C261.028 84.6225 261.829 84.7826 262.662 85.1027C263.559 85.3591 264.327 86.0316 264.968 87.1207L269.196 80.7788C268.748 80.138 268.107 79.5295 267.274 78.9531C266.506 78.3764 265.577 77.8958 264.488 77.5115C263.399 77.1271 262.149 76.9351 260.74 76.9351C258.049 76.9351 255.743 77.5115 253.821 78.6646C251.964 79.7537 250.522 81.4192 249.497 83.6614C248.472 85.9036 247.96 88.7862 247.96 92.3096V100.645H243.636Z" fill="#1D2026"/>
<path d="M122.917 85.9525V145.529H157.51V137.842H131.085V85.9525H122.917Z" fill="#1D2026"/>
<path fill-rule="evenodd" clip-rule="evenodd" d="M177.996 146.49C182.737 146.49 186.837 145.561 190.296 143.703C193.819 141.782 196.734 138.963 199.04 135.247L192.794 131.308C191.193 133.998 189.239 136.016 186.933 137.361C184.627 138.642 181.968 139.283 178.957 139.283C175.946 139.283 173.384 138.642 171.27 137.361C169.156 136.08 167.554 134.222 166.465 131.788C165.638 129.938 165.124 127.792 164.926 125.35H199.713V124.485C199.777 123.973 199.809 123.492 199.809 123.044C199.809 118.367 198.976 114.332 197.311 110.936C195.645 107.541 193.243 104.946 190.104 103.153C187.029 101.295 183.313 100.366 178.957 100.366C174.601 100.366 170.757 101.327 167.426 103.249C164.159 105.171 161.597 107.861 159.739 111.321C157.945 114.78 157.048 118.816 157.048 123.428C157.048 127.977 157.913 131.98 159.643 135.439C161.436 138.899 163.903 141.622 167.042 143.607C170.245 145.529 173.896 146.49 177.996 146.49ZM166.561 114.396C165.947 115.696 165.496 117.169 165.208 118.816H191.406C191.258 116.71 190.728 114.853 189.815 113.243C188.79 111.321 187.349 109.815 185.491 108.726C183.634 107.637 181.455 107.092 178.957 107.092C176.01 107.092 173.48 107.733 171.366 109.014C169.316 110.231 167.714 112.025 166.561 114.396Z" fill="#1D2026"/>
<path fill-rule="evenodd" clip-rule="evenodd" d="M231.101 121.295C229.893 120.502 228.355 119.804 226.489 119.2C224.375 118.431 221.716 118.047 218.513 118.047C213.068 118.047 208.808 119.36 205.733 121.987C202.722 124.549 201.217 127.977 201.217 132.269C201.217 135.279 201.921 137.842 203.33 139.956C204.74 142.07 206.598 143.703 208.904 144.856C211.274 145.946 213.805 146.49 216.495 146.49C218.929 146.49 221.364 146.042 223.798 145.145C226.297 144.248 228.379 142.871 230.044 141.013C230.442 140.585 230.794 140.132 231.101 139.654V145.529H238.788V113.819C238.788 110.936 238.052 108.502 236.578 106.516C235.169 104.53 233.151 103.025 230.525 102C227.962 100.911 224.951 100.366 221.492 100.366C217.392 100.366 213.869 100.975 210.922 102.192C208.039 103.409 205.765 104.626 204.099 105.843L207.847 111.513C208.551 111 209.513 110.392 210.73 109.687C211.947 108.982 213.42 108.374 215.15 107.861C216.944 107.349 218.929 107.092 221.108 107.092C222.453 107.092 223.734 107.221 224.951 107.477C226.168 107.733 227.225 108.149 228.122 108.726C229.083 109.303 229.82 110.104 230.332 111.128C230.845 112.089 231.101 113.339 231.101 114.876V121.295ZM210.153 127.752C209.384 128.906 209 130.283 209 131.884C209 133.55 209.384 134.991 210.153 136.208C210.986 137.425 212.107 138.354 213.516 138.995C214.99 139.571 216.655 139.86 218.513 139.86C220.883 139.86 222.997 139.379 224.855 138.418C226.777 137.457 228.282 136.112 229.371 134.382C230.525 132.589 231.101 130.539 231.101 128.233V126.57C229.87 125.971 228.621 125.5 227.353 125.158C224.983 124.453 222.453 124.101 219.762 124.101C217.264 124.101 215.214 124.421 213.612 125.062C212.075 125.702 210.922 126.599 210.153 127.752Z" fill="#1D2026"/>
<path fill-rule="evenodd" clip-rule="evenodd" d="M299.093 143.703C295.634 145.561 291.534 146.49 286.794 146.49C282.694 146.49 279.042 145.529 275.839 143.607C272.7 141.622 270.234 138.899 268.44 135.439C266.71 131.98 265.846 127.977 265.846 123.428C265.846 118.816 266.743 114.78 268.536 111.321C270.394 107.861 272.956 105.171 276.223 103.249C279.555 101.327 283.398 100.366 287.755 100.366C292.111 100.366 295.826 101.295 298.901 103.153C302.04 104.946 304.442 107.541 306.108 110.936C307.774 114.332 308.606 118.367 308.606 123.044C308.606 123.492 308.574 123.973 308.51 124.485V125.35H273.723C273.922 127.792 274.435 129.938 275.263 131.788C276.352 134.222 277.953 136.08 280.067 137.361C282.181 138.642 284.744 139.283 287.755 139.283C290.765 139.283 293.424 138.642 295.73 137.361C298.036 136.016 299.99 133.998 301.592 131.308L307.838 135.247C305.531 138.963 302.617 141.782 299.093 143.703ZM274.006 118.816C274.294 117.169 274.745 115.696 275.359 114.396C276.512 112.025 278.113 110.231 280.163 109.014C282.277 107.733 284.808 107.092 287.755 107.092C290.253 107.092 292.431 107.637 294.289 108.726C296.146 109.815 297.588 111.321 298.613 113.243C299.525 114.853 300.056 116.71 300.204 118.816H274.006Z" fill="#1D2026"/>
</svg>
