<svg width="16" height="16" viewBox="0 0 16 16" fill="none" xmlns="http://www.w3.org/2000/svg">
<path d="M5.50879 1.67324C5.29825 1.16467 4.74319 0.893981 4.21275 1.0389L1.80661 1.69512C1.33084 1.82636 1 2.25837 1 2.75054C1 9.51509 6.48491 15 13.2495 15C13.7416 15 14.1736 14.6692 14.3049 14.1934L14.9611 11.7873C15.106 11.2568 14.8353 10.7018 14.3268 10.4912L11.7019 9.39751C11.2562 9.21158 10.7394 9.34009 10.4359 9.71469L9.33127 11.0627C7.40636 10.1522 5.84783 8.59364 4.93733 6.66873L6.28531 5.56682C6.65991 5.26059 6.78842 4.74655 6.60249 4.30086L5.50879 1.67598V1.67324Z" fill="#21A664"/>
</svg>
