<svg width="16" height="16" viewBox="0 0 16 16" fill="none" xmlns="http://www.w3.org/2000/svg">
<g id="phone-solid 1">
<path id="Vector" d="M5.50879 1.67288C5.29825 1.16431 4.74319 0.893614 4.21275 1.03853L1.80661 1.69475C1.33084 1.826 1 2.25801 1 2.75017C1 9.51472 6.48491 14.9996 13.2495 14.9996C13.7416 14.9996 14.1736 14.6688 14.3049 14.193L14.9611 11.7869C15.106 11.2564 14.8353 10.7014 14.3268 10.4908L11.7019 9.39715C11.2562 9.21122 10.7394 9.33973 10.4359 9.71432L9.33127 11.0623C7.40636 10.1518 5.84783 8.59328 4.93733 6.66836L6.28531 5.56646C6.65991 5.26022 6.78842 4.74618 6.60249 4.3005L5.50879 1.67561V1.67288Z" fill="#D9EFFE"/>
</g>
</svg>
