<svg width="360" height="240" viewBox="0 0 360 240" fill="none" xmlns="http://www.w3.org/2000/svg">
<path d="M201.973 149.842C201.973 150.643 202.642 151.282 203.443 151.244L215.313 150.676C216.061 150.641 216.649 150.024 216.649 149.275V111.764C216.649 110.968 215.986 110.33 215.19 110.362L203.32 110.837C202.567 110.867 201.973 111.486 201.973 112.239V149.842Z" fill="#1D2026"/>
<path d="M203.818 103.343C205.271 104.797 207.088 105.524 209.269 105.524C211.561 105.524 213.406 104.797 214.804 103.343C216.258 101.834 216.985 99.9607 216.985 97.7242C216.985 95.5438 216.258 93.6987 214.804 92.1892C213.406 90.6796 211.561 89.9248 209.269 89.9248C207.088 89.9248 205.271 90.6796 203.818 92.1892C202.364 93.6987 201.637 95.5438 201.637 97.7242C201.637 99.9607 202.364 101.834 203.818 103.343Z" fill="#1D2026"/>
<path fill-rule="evenodd" clip-rule="evenodd" d="M166.658 127.245V147.633C166.658 148.308 166.177 148.888 165.513 149.012L153.307 151.294C152.444 151.455 151.646 150.793 151.646 149.915V93.2568C151.646 92.4819 152.275 91.8537 153.05 91.8537H176.974C180.999 91.8537 184.522 92.6085 187.541 94.1181C190.616 95.6276 193.02 97.6963 194.753 100.324C196.486 102.952 197.353 106.027 197.353 109.549C197.353 113.072 196.458 116.175 194.669 118.858C192.936 121.486 190.504 123.555 187.373 125.064C186.019 125.693 184.565 126.186 183.011 126.543L198.932 148.213C199.707 149.268 198.743 150.716 197.471 150.407L184.311 147.216C184.012 147.144 183.746 146.975 183.552 146.737L167.732 127.245H166.658ZM166.658 116.51H174.877C177.337 116.51 179.21 115.923 180.496 114.749C181.838 113.519 182.509 111.869 182.509 109.801C182.509 107.788 181.838 106.167 180.496 104.937C179.21 103.651 177.337 103.008 174.877 103.008H166.658V116.51Z" fill="#1D2026"/>
<path d="M236.558 152.488C234.042 152.488 231.554 152.153 229.094 151.482C226.69 150.811 224.425 149.916 222.301 148.798C220.676 147.876 219.241 146.85 217.995 145.721C217.433 145.211 217.44 144.341 217.971 143.799L223.972 137.672C224.526 137.106 225.434 137.116 226.038 137.629C227.139 138.561 228.381 139.321 229.765 139.908C231.666 140.691 233.678 141.082 235.803 141.082C237.033 141.082 237.956 140.915 238.571 140.579C239.242 140.244 239.577 139.769 239.577 139.154C239.577 138.259 239.102 137.588 238.151 137.141C237.257 136.638 236.055 136.218 234.545 135.883C233.091 135.491 231.554 135.044 229.933 134.541C228.311 133.982 226.746 133.255 225.236 132.36C223.726 131.466 222.496 130.208 221.546 128.587C220.651 126.965 220.204 124.896 220.204 122.381C220.204 119.753 220.903 117.461 222.301 115.504C223.754 113.491 225.767 111.925 228.339 110.807C230.911 109.633 233.93 109.046 237.396 109.046C240.919 109.046 244.273 109.661 247.46 110.891C250.171 111.89 252.893 113.824 254.851 115.859C255.398 116.429 255.291 117.335 254.664 117.817L247.723 123.156C247.139 123.605 246.318 123.514 245.771 123.021C244.818 122.164 243.917 121.717 242.68 121.29C241.059 120.675 239.577 120.368 238.235 120.368C236.949 120.368 236.027 120.564 235.468 120.955C234.909 121.29 234.629 121.766 234.629 122.381C234.629 123.107 235.076 123.695 235.971 124.142C236.921 124.589 238.123 125.008 239.577 125.4C241.087 125.735 242.624 126.182 244.19 126.742C245.811 127.301 247.348 128.083 248.802 129.09C250.312 130.04 251.514 131.326 252.408 132.948C253.359 134.569 253.834 136.666 253.834 139.237C253.834 143.319 252.269 146.562 249.138 148.966C246.007 151.314 241.813 152.488 236.558 152.488Z" fill="#1D2026"/>
<path fill-rule="evenodd" clip-rule="evenodd" d="M264.795 149.553C268.318 151.342 272.371 152.237 276.956 152.237C280.59 152.237 283.833 151.649 286.684 150.475C289.172 149.471 291.332 148.057 293.164 146.234C293.689 145.712 293.658 144.869 293.135 144.346L287.49 138.701C286.917 138.129 285.985 138.166 285.385 138.71C284.425 139.581 283.376 140.26 282.239 140.747C280.73 141.418 278.969 141.753 276.956 141.753C274.831 141.753 273.042 141.334 271.589 140.495C270.135 139.657 269.017 138.427 268.234 136.805C268.042 136.395 267.874 135.964 267.729 135.513L295.406 135.385C296.048 135.382 296.611 134.945 296.737 134.316C296.875 133.63 296.962 133.006 297 132.444C297.111 131.55 297.167 130.683 297.167 129.845C297.167 125.875 296.245 122.353 294.4 119.278C292.611 116.147 290.095 113.715 286.852 111.981C283.665 110.192 280.003 109.298 275.866 109.298C271.616 109.298 267.787 110.248 264.376 112.149C261.022 113.994 258.366 116.538 256.409 119.781C254.452 122.968 253.474 126.63 253.474 130.767C253.474 134.96 254.48 138.678 256.493 141.921C258.506 145.164 261.273 147.708 264.795 149.553ZM267.698 126.094C267.829 125.676 267.979 125.277 268.15 124.896C268.877 123.275 269.911 122.017 271.253 121.123C272.595 120.228 274.188 119.781 276.033 119.781C277.822 119.781 279.304 120.172 280.478 120.955C281.652 121.738 282.547 122.884 283.162 124.393C283.364 124.871 283.536 125.393 283.677 125.961L267.698 126.094Z" fill="#1D2026"/>
<path d="M279.862 103.473V92.649H282.614V103.473H279.862ZM276.525 94.9399V92.5721H285.95V94.9399H276.525ZM286.433 103.473V92.5721H288.417L292.599 98.8913H291.661L295.828 92.5721H297.811V103.473H295.09V97.1232L295.52 97.2462L293.014 101.013H291.23L288.74 97.2462L289.17 97.1232V103.473H286.433Z" fill="#1D2026"/>
<path d="M79.9761 86.8514C79.9761 86.0192 80.5958 85.3172 81.4216 85.214L91.3227 83.9764C92.3076 83.8533 93.1775 84.6212 93.1775 85.6138V118.179C93.1775 119.172 92.3076 119.94 91.3227 119.817L81.4216 118.579C80.5958 118.476 79.9761 117.774 79.9761 116.942V86.8514Z" fill="#1D2026"/>
<path d="M60.1738 90.9769C60.1738 90.1447 60.7935 89.4427 61.6193 89.3395L71.5204 88.1018C72.5054 87.9787 73.3753 88.7467 73.3753 89.7393V115.704C73.3753 116.697 72.5054 117.465 71.5204 117.341L61.6193 116.104C60.7935 116.001 60.1738 115.299 60.1738 114.466V90.9769Z" fill="#1D2026"/>
<path d="M111.73 86.7324C112.464 86.916 112.98 87.5761 112.98 88.3333V102.09C112.98 102.922 112.36 103.624 111.534 103.727L101.633 104.965C100.648 105.088 99.7783 104.32 99.7783 103.328V85.858C99.7783 84.7845 100.787 83.9967 101.829 84.2571L111.73 86.7324Z" fill="#1D2026"/>
<path d="M131.132 92.4588C131.132 91.7016 130.616 91.0415 129.882 90.8579L119.981 88.3826C118.939 88.1222 117.93 88.9099 117.93 89.9835V102.503C117.93 103.495 118.8 104.263 119.785 104.14L129.686 102.902C130.512 102.799 131.132 102.097 131.132 101.265V92.4588Z" fill="#1D2026"/>
<path d="M131.132 109.322L98.9532 110.147C99.4188 116.2 104.466 120.874 110.536 120.874H117.93V127.897L60.1738 122.524V156.927L131.132 151.976V109.322Z" fill="#1D2026"/>
</svg>
