<svg width="360" height="240" viewBox="0 0 360 240" fill="none" xmlns="http://www.w3.org/2000/svg">
<path d="M146.746 145.057C141.849 145.057 137.718 144.365 134.355 142.98C131.041 141.595 128.543 139.641 126.861 137.118C125.18 134.546 124.339 131.529 124.339 128.066V127.621H132.352V128.808C132.352 130.786 132.797 132.444 133.687 133.779C134.578 135.065 136.061 136.054 138.139 136.747C140.217 137.39 143.086 137.712 146.746 137.712C149.912 137.712 152.435 137.489 154.314 137.044C156.194 136.549 157.529 135.807 158.321 134.818C159.162 133.779 159.582 132.493 159.582 130.96C159.582 128.783 158.89 127.2 157.504 126.211C156.119 125.222 153.869 124.43 150.753 123.837L138.584 121.833C135.814 121.289 133.341 120.498 131.165 119.459C128.989 118.371 127.282 116.936 126.045 115.156C124.858 113.326 124.264 111.05 124.264 108.33C124.264 106.549 124.66 104.793 125.452 103.062C126.243 101.33 127.479 99.7722 129.161 98.3872C130.843 97.0022 133.02 95.914 135.691 95.1225C138.411 94.2816 141.726 93.8612 145.633 93.8612C150.48 93.8612 154.462 94.6031 157.579 96.0871C160.695 97.571 162.995 99.5991 164.479 102.171C166.013 104.694 166.779 107.588 166.779 110.852V111.297H158.84V110.333C158.84 108.305 158.395 106.623 157.504 105.287C156.614 103.902 155.155 102.888 153.127 102.245C151.099 101.553 148.354 101.207 144.891 101.207C141.874 101.207 139.425 101.454 137.546 101.949C135.716 102.443 134.38 103.185 133.539 104.175C132.698 105.114 132.277 106.351 132.277 107.884C132.277 109.269 132.574 110.407 133.168 111.297C133.762 112.188 134.677 112.905 135.913 113.449C137.149 113.944 138.733 114.414 140.662 114.859L152.756 116.936C156.07 117.53 158.815 118.42 160.992 119.608C163.218 120.795 164.875 122.303 165.963 124.134C167.051 125.964 167.596 128.091 167.596 130.514C167.596 133.037 166.878 135.411 165.444 137.637C164.009 139.863 161.758 141.669 158.692 143.054C155.625 144.389 151.643 145.057 146.746 145.057ZM190.943 144.315H181.001L169.945 107.439H178.255L184.413 128.363L186.12 137.86H186.714L189.459 127.621L197.175 107.439H207.414L215.206 127.621L217.95 137.86H218.544L220.251 128.363L226.409 107.439H234.571L223.367 144.315H213.425L205.337 123.095L202.518 114.043H201.925L199.105 123.095L190.943 144.315ZM246.654 144.315H238.641V107.439H246.654V144.315ZM246.654 103.136H238.641V94.6031H246.654V103.136ZM271.511 145.057C265.575 145.057 260.975 143.919 257.71 141.644C254.495 139.369 252.887 136.104 252.887 131.85V131.627H260.901V132.221C260.901 134.645 261.693 136.327 263.275 137.266C264.908 138.157 267.653 138.602 271.511 138.602C275.122 138.602 277.571 138.231 278.856 137.489C280.192 136.698 280.86 135.486 280.86 133.853C280.86 132.32 280.341 131.232 279.301 130.589C278.312 129.946 276.482 129.451 273.811 129.105L263.72 127.769C260.208 127.324 257.463 126.335 255.485 124.801C253.506 123.218 252.517 120.869 252.517 117.753C252.517 115.576 253.16 113.672 254.446 112.039C255.732 110.358 257.661 109.047 260.233 108.107C262.805 107.167 265.971 106.697 269.73 106.697C273.49 106.697 276.705 107.192 279.376 108.181C282.096 109.17 284.174 110.654 285.608 112.633C287.093 114.612 287.835 117.06 287.835 119.978V120.201H279.895V119.756C279.895 118.321 279.598 117.11 279.005 116.12C278.412 115.131 277.348 114.389 275.814 113.894C274.331 113.35 272.229 113.078 269.508 113.078C266.094 113.078 263.72 113.474 262.385 114.265C261.049 115.057 260.382 116.318 260.382 118.049C260.382 119.484 260.877 120.523 261.866 121.166C262.854 121.809 264.71 122.328 267.43 122.724L275.963 123.911C280.316 124.455 283.531 125.519 285.608 127.101C287.686 128.684 288.725 131.009 288.725 134.076C288.725 136.351 288.007 138.33 286.574 140.012C285.139 141.644 283.135 142.905 280.563 143.796C277.991 144.637 274.974 145.057 271.511 145.057ZM311.942 145.057C306.007 145.057 301.406 143.919 298.142 141.644C294.927 139.369 293.319 136.104 293.319 131.85V131.627H301.333V132.221C301.333 134.645 302.124 136.327 303.707 137.266C305.339 138.157 308.085 138.602 311.942 138.602C315.554 138.602 318.002 138.231 319.288 137.489C320.623 136.698 321.292 135.486 321.292 133.853C321.292 132.32 320.772 131.232 319.734 130.589C318.744 129.946 316.914 129.451 314.243 129.105L304.152 127.769C300.64 127.324 297.894 126.335 295.916 124.801C293.938 123.218 292.949 120.869 292.949 117.753C292.949 115.576 293.591 113.672 294.878 112.039C296.164 110.358 298.093 109.047 300.665 108.107C303.237 107.167 306.403 106.697 310.162 106.697C313.921 106.697 317.136 107.192 319.807 108.181C322.528 109.17 324.606 110.654 326.04 112.633C327.524 114.612 328.266 117.06 328.266 119.978V120.201H320.327V119.756C320.327 118.321 320.03 117.11 319.437 116.12C318.843 115.131 317.78 114.389 316.246 113.894C314.762 113.35 312.66 113.078 309.94 113.078C306.526 113.078 304.152 113.474 302.816 114.265C301.481 115.057 300.814 116.318 300.814 118.049C300.814 119.484 301.308 120.523 302.297 121.166C303.286 121.809 305.142 122.328 307.862 122.724L316.395 123.911C320.748 124.455 323.963 125.519 326.04 127.101C328.118 128.684 329.157 131.009 329.157 134.076C329.157 136.351 328.439 138.33 327.005 140.012C325.57 141.644 323.567 142.905 320.995 143.796C318.422 144.637 315.406 145.057 311.942 145.057Z" fill="#1D2026"/>
<path d="M74.0273 80.0009H57.4316V111.432L74.0273 95.7165V80.0009Z" fill="#1D2026"/>
<path d="M26 128.027L26 111.431H57.4313L41.7156 128.027H26Z" fill="#1D2026"/>
<path d="M105.458 111.433V128.029H74.0269L89.7425 111.433H105.458Z" fill="#1D2026"/>
<path d="M74.0927 111.366H57.3647V159.459H74.0927V111.366Z" fill="#1D2026"/>
</svg>
