<svg width="128" height="128" viewBox="0 0 128 128" fill="none" xmlns="http://www.w3.org/2000/svg">
<g id="Teen">
<path id="Vector" d="M65.05 13.02C50.905 12.965 37.075 21.545 30.84 34.245C28.955 38.085 27.715 42.395 28.335 46.625C28.955 50.855 31.75 54.94 35.84 56.185C39.04 57.16 42.48 56.335 45.72 55.505C58.415 52.265 71.105 49.025 83.8 45.785C87.13 44.935 90.525 44.06 93.41 42.195C95.785 40.66 98.11 38.19 97.78 35.045C97.5 32.355 95.34 28.235 93.635 26.29C89.085 21.11 83.14 17.17 76.61 14.97C72.895 13.72 68.98 13.035 65.055 13.02H65.05Z" fill="#D9A336"/>
<path id="Vector_2" d="M55.1999 120.22C57.9449 112.325 66.4399 107.05 74.7049 107.635C79.7949 107.995 84.3249 111.165 89.5099 110.92C91.7849 110.81 94.0549 110.135 95.7849 108.61C97.5149 107.085 98.0949 105 98.5399 102.89C98.9849 100.78 99.2499 98.635 101.25 97.575C102.475 96.925 103.68 96.165 103.935 94.685C104.19 93.205 103.38 91.855 102.195 90.955L101.565 93.285C103.17 93.14 104.705 92.665 105.35 91.055C105.895 89.69 105.545 88.145 106.045 86.785C106.295 86.105 106.86 85.94 107.53 85.81C108.46 85.63 109.325 85.51 110.185 85.085C111.685 84.345 112.555 82.9 112.65 81.255C112.75 79.52 111.995 77.895 111.29 76.36C110.455 74.54 109.575 72.74 108.78 70.9C107.985 69.06 107.405 67.355 107.395 65.39C107.385 63.26 107.84 61.17 108.235 59.085C108.965 55.26 109.3 51.405 108.935 47.515C108.595 43.87 107.75 40.29 106.42 36.885C105.07 33.44 103.3 30.185 101.16 27.17C99.0199 24.155 96.6899 21.345 93.9449 18.98C91.1999 16.615 88.3749 14.53 85.2549 12.91C81.7399 11.085 77.9199 9.73001 74.0399 8.93001C70.1599 8.13001 65.8849 7.73501 61.7899 8.05501C57.6949 8.37501 53.3749 9.41501 49.3799 10.895C45.3849 12.375 42.0949 14.315 38.9049 16.8C35.6099 19.37 32.8249 22.415 30.3249 25.745C27.9199 28.95 25.8249 32.28 24.4599 36.065C23.0949 39.85 22.4899 43.595 22.3799 47.465C22.2699 51.335 22.7549 55.425 23.7399 59.27C24.8449 63.575 26.4349 67.735 27.3049 72.1C28.7999 79.61 28.3399 88.15 23.1949 94.255C22.0999 95.555 20.8399 96.695 19.4099 97.61C18.0599 98.475 19.3099 100.64 20.6699 99.77C27.0449 95.695 30.1949 88.26 30.5349 80.905C30.7349 76.595 30.0449 72.255 28.9399 68.1C27.8449 63.98 26.3049 59.98 25.5249 55.78C24.1799 48.58 24.7749 40.77 27.9699 34.11C29.6549 30.6 32.0549 27.36 34.5749 24.405C37.0949 21.455 40.0099 18.85 43.2699 16.745C46.5299 14.64 50.3649 13.03 54.2549 11.94C58.1449 10.85 61.9199 10.35 65.8499 10.455C73.3049 10.655 80.9999 12.795 87.2099 16.985C89.9599 18.84 92.5549 20.895 94.8199 23.32C97.2899 25.97 99.4849 28.86 101.305 31.995C104.84 38.075 106.8 44.98 106.585 52.035C106.53 53.91 106.32 55.77 105.98 57.62C105.595 59.71 105.13 61.795 104.96 63.915C104.79 66.035 105.01 68.04 105.745 70C106.43 71.83 107.26 73.605 108.09 75.37C108.795 76.875 109.67 78.4 110.05 80.035C110.32 81.21 110.195 82.21 109.15 82.805C108.455 83.2 107.64 83.245 106.87 83.395C105.945 83.57 105.045 83.955 104.425 84.685C103.855 85.36 103.56 86.19 103.435 87.055C103.37 87.495 103.325 87.935 103.29 88.38C103.275 88.59 103.26 88.8 103.24 89.015C103.235 89.09 103.185 89.55 103.205 89.385C103.165 89.66 103.11 89.93 103.02 90.19C102.945 90.415 103.085 90.08 102.97 90.28C102.87 90.455 103.08 90.21 102.88 90.4C102.755 90.52 102.76 90.52 102.565 90.59C102.24 90.705 101.905 90.76 101.565 90.79C100.27 90.905 99.9399 92.365 100.935 93.12C101.54 93.58 101.71 94.275 101.155 94.755C100.775 95.085 100.265 95.27 99.8299 95.515C99.3449 95.78 98.8849 96.11 98.4949 96.495C97.0249 97.95 96.5949 100.045 96.1899 101.99C95.8049 103.835 95.4099 105.81 93.8299 107.02C92.2499 108.23 90.1899 108.53 88.2799 108.43C85.7349 108.295 83.2899 107.29 80.8999 106.5C78.5099 105.71 76.2799 105.165 73.8549 105.11C69.5899 105.005 65.2899 106.3 61.6949 108.57C57.6099 111.155 54.3949 114.985 52.7999 119.57C52.5799 120.21 53.0549 120.935 53.6749 121.11C54.3649 121.3 54.9899 120.875 55.2149 120.235L55.1999 120.22Z" fill="#57450D"/>
<path id="Vector_3" d="M83.135 63.74C85.775 65.26 88.645 66.465 91.71 66.665C94.555 66.855 97.39 66.05 99.595 64.23C100.115 63.8 100.04 62.905 99.595 62.46C99.08 61.945 98.35 62.03 97.825 62.46C93.87 65.715 88.3 63.825 84.39 61.575C82.995 60.77 81.73 62.93 83.13 63.735L83.135 63.74Z" fill="#57450D"/>
</g>
</svg>
