<svg width="20" height="20" viewBox="0 0 20 20" fill="none" xmlns="http://www.w3.org/2000/svg">
<g id="Tiktok" clip-path="url(#clip0_2546_1511)">
<path id="Vector" fill-rule="evenodd" clip-rule="evenodd" d="M9.99967 0.83252C4.93509 0.83252 0.833008 4.9346 0.833008 9.99918C0.833008 15.0638 4.93509 19.1658 9.99967 19.1658C15.0643 19.1658 19.1663 15.0638 19.1663 9.99918C19.1663 4.9346 15.0643 0.83252 9.99967 0.83252ZM12.1309 7.52419V7.8221V11.7867C12.1309 12.7339 11.7566 13.6277 11.092 14.2999C10.4198 14.9721 9.52606 15.3388 8.57884 15.3388C7.63162 15.3388 6.73787 14.9645 6.06565 14.2999C5.39342 13.6277 5.02676 12.7339 5.02676 11.7867C5.02676 10.8395 5.40106 9.94571 6.06565 9.27349C6.73787 8.60127 7.63162 8.2346 8.57884 8.2346H9.23578V10.1061H8.57884C8.12815 10.1061 7.70801 10.2818 7.38717 10.6027C7.06634 10.9235 6.89065 11.3436 6.89065 11.7943C6.89065 12.245 7.06634 12.6652 7.38717 12.986C7.70801 13.3068 8.12815 13.4825 8.57884 13.4825C9.02954 13.4825 9.44967 13.3068 9.77051 12.986C10.0913 12.6652 10.267 12.245 10.267 11.7943V4.6596H12.1309L12.2226 4.8353C12.5129 5.37002 12.9025 5.88182 13.3837 6.25613C13.758 6.54641 14.1858 6.75266 14.6518 6.83669L14.9802 6.8978L14.6212 8.70057L14.3004 8.6471C13.9184 8.57835 13.5518 8.46377 13.2004 8.30335C12.8031 8.11238 12.4288 7.8603 12.1233 7.53946L12.1309 7.52419Z" fill="#DAF5F1"/>
</g>
<defs>
<clipPath id="clip0_2546_1511">
<rect width="20" height="20" fill="white" transform="translate(0 -0.000976562)"/>
</clipPath>
</defs>
</svg>
