<svg width="16" height="16" viewBox="0 0 16 16" fill="none" xmlns="http://www.w3.org/2000/svg">
<g id="xmark-solid 1">
<path id="Vector" d="M12.7063 4.70624C13.0969 4.31562 13.0969 3.68124 12.7063 3.29062C12.3156 2.89999 11.6813 2.89999 11.2906 3.29062L8.00002 6.58437L4.70627 3.29374C4.31565 2.90312 3.68127 2.90312 3.29065 3.29374C2.90002 3.68437 2.90002 4.31874 3.29065 4.70937L6.5844 7.99999L3.29377 11.2937C2.90315 11.6844 2.90315 12.3187 3.29377 12.7094C3.6844 13.1 4.31877 13.1 4.7094 12.7094L8.00002 9.41562L11.2938 12.7062C11.6844 13.0969 12.3188 13.0969 12.7094 12.7062C13.1 12.3156 13.1 11.6812 12.7094 11.2906L9.41565 7.99999L12.7063 4.70624Z" fill="#1D2026"/>
</g>
</svg>
