<svg width="20" height="20" viewBox="0 0 20 20" fill="none" xmlns="http://www.w3.org/2000/svg">
<g id="Youtube">
<path id="Vector" d="M19.5831 5.18675C19.4694 4.76319 19.2463 4.37698 18.9362 4.06689C18.6262 3.7568 18.24 3.53374 17.8164 3.42008C16.2539 3.00342 9.99974 3.00342 9.99974 3.00342C9.99974 3.00342 3.74974 3.00342 2.18724 3.42008C1.76368 3.53374 1.37746 3.7568 1.06737 4.06689C0.757275 4.37698 0.534227 4.76319 0.420573 5.18675C0.00390625 6.74508 0.00390625 9.99925 0.00390625 9.99925C0.00390625 9.99925 0.00390625 13.2534 0.420573 14.8159C0.533504 15.2385 0.755312 15.624 1.06386 15.934C1.3724 16.244 1.75688 16.4677 2.17889 16.5826C3.73723 16.9992 9.99139 16.9992 9.99139 16.9992C9.99139 16.9992 16.2414 16.9992 17.8081 16.5826C18.2316 16.4689 18.6178 16.2459 18.9279 15.9358C19.238 15.6257 19.4611 15.2395 19.5747 14.8159C19.9914 13.2534 19.9914 9.99925 19.9914 9.99925C19.9914 9.99925 19.9997 6.74508 19.5831 5.18675ZM8.01223 12.9992V6.99925L13.208 9.99925L8.01223 12.9992Z" fill="#DAF5F1"/>
</g>
</svg>
