<svg width="24" height="24" viewBox="0 0 24 24" fill="none" xmlns="http://www.w3.org/2000/svg">
<path d="M23.4999 6.22501C23.3635 5.71674 23.0958 5.25329 22.7237 4.88118C22.3516 4.50907 21.8881 4.2414 21.3799 4.10501C19.5049 3.60501 11.9999 3.60501 11.9999 3.60501C11.9999 3.60501 4.49988 3.60501 2.62488 4.10501C2.11661 4.2414 1.65315 4.50907 1.28104 4.88118C0.908925 5.25329 0.641268 5.71674 0.504883 6.22501C0.00488281 8.09501 0.00488281 12 0.00488281 12C0.00488281 12 0.00488281 15.905 0.504883 17.78C0.6404 18.2871 0.906569 18.7497 1.27682 19.1217C1.64708 19.4937 2.10845 19.7621 2.61487 19.9C4.48487 20.4 11.9899 20.4 11.9899 20.4C11.9899 20.4 19.4899 20.4 21.3699 19.9C21.8781 19.7636 22.3416 19.4959 22.7137 19.1238C23.0858 18.7517 23.3535 18.2883 23.4899 17.78C23.9899 15.905 23.9899 12 23.9899 12C23.9899 12 23.9999 8.09501 23.4999 6.22501ZM9.61487 15.6V8.40001L15.8499 12L9.61487 15.6Z" fill="#F5F7FA"/>
</svg>
